<?xml version="1.0" ?><!DOCTYPE svg  PUBLIC '-//W3C//DTD SVG 1.1//EN'  'http://www.w3.org/Graphics/SVG/1.1/DTD/svg11.dtd'><svg enable-background="new 0 0 130 130" height="130px" id="Layer_1" version="1.1" viewBox="0 0 130 130" width="130px" xml:space="preserve" xmlns="http://www.w3.org/2000/svg" xmlns:xlink="http://www.w3.org/1999/xlink"><g><g><g><g><g><g><path d="M105.133,10.223l-12.82-7.345c-0.561-0.409-1.162-0.754-1.801-1.032l-0.189-0.107l-0.008,0.016        c-3.449-1.402-7.904-0.896-12.764,1.909L38.065,26.459c-10.857,6.269-19.74,21.655-19.74,34.193v45.591        c0,6.114,2.123,10.45,5.547,12.577l-0.033,0.06l14.248,8.073l8.012-13.95l31.453-18.157        c10.855-6.269,19.74-21.656,19.74-34.193V23.875L105.133,10.223z" fill="#DCF1F9"/><path d="M105.133,10.223L91.411,7.004c-0.561-0.408-3.363-0.398-4.002-0.678L86.391,5.92L84.559,5.58        c-3.449-1.402-2.148-4.721-7.008-1.916L38.065,26.459c-10.857,6.269-19.74,21.655-19.74,34.193v45.591        c0,6.114,2.123,10.45,5.547,12.577l-0.033,0.06l14.248,8.073l8.012-13.95l31.453-18.157        c10.855-6.269,19.74-21.656,19.74-34.193V23.875L105.133,10.223z" fill="#CCE6F2"/><path d="M19.077,54.084c-0.479,2.232-0.752,4.442-0.752,6.568v45.591c0,6.114,2.123,10.45,5.547,12.577        l-0.033,0.06l14.248,8.073l8.012-13.95l31.453-18.157c1.844-1.065,3.627-2.41,5.322-3.945L19.077,54.084z" fill="#BFD9E8"/><g><path d="M51.635,34.329c-10.857,6.268-19.742,21.656-19.742,34.193v45.592         c0,12.537,8.885,17.666,19.742,11.396l39.484-22.795c10.857-6.268,19.742-21.655,19.742-34.193V22.93         c0-12.537-8.885-17.665-19.742-11.396L51.635,34.329z" fill="#FFFFFF"/><path d="M110.862,22.93c0-12.537-8.885-17.665-19.742-11.396L51.635,34.329         c-10.857,6.268-19.742,21.656-19.742,34.193v45.592c0,12.537,8.885,17.666,19.742,11.396" fill="#5BC0D8" opacity="0.1"/><path d="M42.866,129h-0.002c-7.158,0-11.783-5.843-11.783-14.886V68.522c0-12.828,9.037-28.484,20.146-34.898         l39.486-22.795c3.201-1.848,6.289-2.784,9.178-2.784c7.158,0,11.785,5.844,11.785,14.886v45.592         c0,12.829-9.039,28.484-20.148,34.898l-39.486,22.795C48.84,128.063,45.754,129,42.866,129z M99.891,9.672         c-2.6,0-5.414,0.863-8.363,2.564L52.042,35.034c-10.66,6.155-19.334,21.178-19.334,33.488v45.592         c0,8.178,3.891,13.258,10.156,13.258h0.002c2.6,0,5.412-0.863,8.361-2.564l39.486-22.797         c10.66-6.154,19.334-21.178,19.334-33.488V22.93C110.047,14.752,106.157,9.672,99.891,9.672z" fill="#FFFFFF"/></g></g></g></g></g></g><g><g enable-background="new    "><g><path d="M73.423,37.555c-8.284,4.783-15.651,13.217-20.639,22.724c-1.515,2.898-2.821,5.896-3.851,8.922      L73.423,37.555" fill="#FF7976"/><path d="M73.423,37.555L48.934,69.201l9.221,2.762c1.058-4.331,3.105-8.713,5.795-12.525      c2.658-3.771,5.939-6.983,9.51-9.044c3.847-2.221,7.337-2.664,10.078-1.674L91.458,35C86.6,32.954,80.379,33.54,73.423,37.555" fill="#E3443A"/><path d="M48.934,69.201c-1.678,4.918-2.647,9.897-2.742,14.636c-0.007,0.295-0.021,0.586-0.021,0.877      c0.001,0.292,0.017,0.565,0.025,0.852c0.121,4.604,1.116,8.458,2.816,11.418l9.167-13.396l-9.167,13.396L48.934,69.201" fill="#F4D72C"/><path d="M48.934,69.201l0.079,27.782l9.167-13.396c-0.449-1.305-0.715-2.812-0.789-4.483      c-0.016-0.283-0.032-0.557-0.033-0.849c0-0.29,0.014-0.581,0.029-0.881c0.063-1.761,0.328-3.584,0.768-5.411L48.934,69.201" fill="#F7B92B"/><path d="M58.189,83.609l-9.176,13.383l15.021-7.595C61.34,88.69,59.266,86.707,58.189,83.609" fill="#59C96E"/><path d="M49.013,96.992c1.044,1.818,2.354,3.306,3.881,4.44c5.024,3.734,12.423,3.645,20.707-1.139      c2.503-1.446,4.967-3.248,7.314-5.354c3.903-3.5,7.499-7.837,10.477-12.748l-8.76-2.709c-2.46,3.205-5.559,5.958-9.067,7.983      c-2.058,1.188-4.017,1.868-5.823,2.115c-1.33,0.176-2.576,0.107-3.708-0.184L49.013,96.992" fill="#40A557"/><path d="M73.531,75.342l-0.016-5.549l-0.005-1.729l14.686-1.188L73.531,75.342 M97.329,49.461L73.497,63.22      l0.014,4.845l0.005,1.729l0.016,5.549l14.665-8.466c-0.725,4.562-2.713,8.891-5.563,12.605l8.76,2.709      c2.389-3.932,4.368-8.238,5.785-12.777c1.556-4.963,2.44-10.201,2.425-15.548c0.016,5.347-0.869,10.585-2.425,15.548      c-1.417,4.539-3.396,8.846-5.785,12.777L97.329,49.461" fill="#0FAEF4"/><path d="M98.964,48.517l-1.636,0.944l-5.937,32.729c2.389-3.932,4.368-8.238,5.785-12.777      c1.556-4.963,2.44-10.201,2.425-15.548C99.596,52.013,99.345,50.162,98.964,48.517" fill="#4087ED"/><polyline fill="#4087ED" points="73.51,68.065 73.515,69.793 73.531,75.342 88.196,66.876 73.51,68.065     "/></g></g></g></g></svg>