<?xml version="1.0" ?><!DOCTYPE svg  PUBLIC '-//W3C//DTD SVG 1.1//EN'  'http://www.w3.org/Graphics/SVG/1.1/DTD/svg11.dtd'><svg enable-background="new 0 0 130 130" height="130px" id="Layer_1" version="1.1" viewBox="0 0 130 130" width="130px" xml:space="preserve" xmlns="http://www.w3.org/2000/svg" xmlns:xlink="http://www.w3.org/1999/xlink"><g><g><path d="M105.133,10.223l-12.82-7.344c-0.561-0.408-1.162-0.754-1.801-1.032l-0.189-0.108l-0.008,0.016    c-3.449-1.402-7.904-0.895-12.764,1.91L38.064,26.46c-10.857,6.269-19.74,21.655-19.74,34.193v45.591    c0,6.114,2.123,10.45,5.547,12.578l-0.033,0.059l14.248,8.072l8.012-13.949l31.453-18.157c10.855-6.269,19.74-21.655,19.74-34.193    V23.876L105.133,10.223z" fill="#24A9E6"/><path d="M105.133,10.223L91.41,7.005c-0.561-0.409-3.363-0.398-4.002-0.677L86.391,5.92l-1.832-0.34    c-3.449-1.402-2.148-4.721-7.008-1.916L38.064,26.46c-10.857,6.269-19.74,21.655-19.74,34.193v45.591    c0,6.114,2.123,10.45,5.547,12.578l-0.033,0.059l14.248,8.072l8.012-13.949l31.453-18.157c10.855-6.269,19.74-21.655,19.74-34.193    V23.876L105.133,10.223z" fill="#0794D3"/><path d="M19.076,54.085c-0.479,2.231-0.752,4.442-0.752,6.568v45.591c0,6.114,2.123,10.45,5.547,12.578    l-0.033,0.059l14.248,8.072l8.012-13.949l31.453-18.157c1.844-1.065,3.627-2.411,5.322-3.945L19.076,54.085z" fill="#0982C6"/><g><path d="M51.635,34.329c-10.857,6.269-19.742,21.655-19.742,34.193v45.591c0,12.538,8.885,17.666,19.742,11.398     l39.484-22.796c10.857-6.269,19.742-21.655,19.742-34.193V22.932c0-12.538-8.885-17.666-19.742-11.398L51.635,34.329z" fill="#3DBDEA"/><path d="M110.861,22.932c0-12.538-8.885-17.666-19.742-11.398L51.635,34.329     c-10.857,6.269-19.742,21.655-19.742,34.193v45.591c0,12.538,8.885,17.666,19.742,11.398" fill="#24A9E6"/><path d="M42.865,129h-0.002c-7.158,0-11.783-5.844-11.783-14.887V68.522c0-12.829,9.037-28.485,20.146-34.897     l39.486-22.796c3.201-1.848,6.289-2.784,9.178-2.784c7.158,0,11.785,5.844,11.785,14.887v45.591     c0,12.829-9.039,28.485-20.148,34.897l-39.486,22.796C48.84,128.063,45.754,129,42.865,129z M99.891,9.674     c-2.6,0-5.414,0.863-8.363,2.564L52.041,35.033c-10.66,6.156-19.334,21.179-19.334,33.489v45.591     c0,8.178,3.891,13.259,10.156,13.259h0.002c2.6,0,5.412-0.864,8.361-2.565l39.486-22.795     c10.66-6.155,19.334-21.179,19.334-33.489V22.932C110.047,14.754,106.156,9.674,99.891,9.674z" fill="#5CDCFF"/></g></g><g><g enable-background="new    "><g><path d="M54.654,88.825c1.438,4.408,5.565,5.835,10.46,3.115C60.22,94.66,56.093,93.233,54.654,88.825       M50.696,77.795l0.001,0.168c0.019,6.373,3.885,9.468,9.002,7.722c-5.117,1.746-8.983-1.349-9.002-7.722L50.696,77.795       M97.399,47.179c0.051,17.395-11.127,43.923-31.667,55.782c-6.31,3.643-12.183,4.853-17.14,3.984      c4.957,0.868,10.83-0.342,17.14-3.984C86.272,91.102,97.45,64.573,97.399,47.179 M102.916,35.463      c-1.484,3.502-3.372,6.912-5.544,10.024C99.544,42.375,101.432,38.965,102.916,35.463" fill="#FCFCFC"/><path d="M102.702,35.695c-0.051,0.056-0.103,0.113-0.155,0.168C102.6,35.809,102.651,35.751,102.702,35.695       M86.147,38.959C79.983,42.52,75,51.299,75.021,58.566c0.003,1.033,0.105,1.973,0.298,2.834      c-9.286,4.809-17.528,4.319-23.061-0.465c-0.953,2.504-1.503,5.09-1.495,7.493c0.012,4.565,1.994,7.459,5,8.089      c-1.826,0.984-3.557,1.387-5.066,1.277l0.001,0.168c0.019,6.373,3.885,9.468,9.002,7.722c-0.935,0.847-1.925,1.576-2.944,2.164      c-0.715,0.413-1.423,0.743-2.101,0.977c1.438,4.408,5.565,5.835,10.46,3.115c-3.811,5.739-8.63,10.622-13.857,13.64      c-0.898,0.52-1.789,0.98-2.664,1.365c4.957,0.868,10.83-0.342,17.14-3.984c20.54-11.859,31.718-38.388,31.667-55.782      c-0.001-0.576-0.01-1.141-0.027-1.691c2.172-3.112,4.06-6.522,5.544-10.024c-0.567,1.336-1.212,2.653-1.888,3.953l-0.631-1.391      c-1.253,1.176-2.553,2.255-3.891,3.213c2.309-2.961,4.074-6.564,4.896-10.123c-2.157,2.762-4.536,5.229-7.092,7.292      C92.278,37.023,89.368,37.102,86.147,38.959" fill="#FCFCFC"/><g><path d="M101.977,37.525c0.329-0.683,0.646-1.369,0.939-2.062C102.622,36.156,102.301,36.842,101.977,37.525z" fill="#D2F1FF"/><path d="M101.036,39.401c0.324-0.621,0.641-1.244,0.94-1.876C101.673,38.155,101.358,38.78,101.036,39.401z" fill="#D2F1FF"/><path d="M97.386,46.272c-0.006-0.261-0.006-0.529-0.014-0.785c1.342-1.924,2.56-3.969,3.656-6.071l-0.631-1.391       c-1.253,1.176-2.553,2.255-3.891,3.213c2.309-2.961,4.074-6.564,4.896-10.123c-2.157,2.762-4.536,5.229-7.092,7.292       c-2.032-1.384-4.942-1.306-8.163,0.552C79.983,42.52,75,51.299,75.021,58.566c0.003,1.033,0.105,1.973,0.298,2.834       c-9.286,4.809-17.528,4.319-23.061-0.465c-0.953,2.504-1.503,5.09-1.495,7.493c0.012,4.565,1.994,7.459,5,8.089       c-1.826,0.984-3.557,1.387-5.066,1.277l0.001,0.168c0.019,6.373,3.885,9.468,9.002,7.722c-0.935,0.847-1.925,1.576-2.944,2.164       c-0.715,0.413-1.423,0.743-2.101,0.977c1.438,4.408,5.565,5.835,10.46,3.115c-3.811,5.739-8.63,10.622-13.857,13.64       c-0.898,0.52-1.789,0.98-2.664,1.365c4.542,0.795,9.855-0.16,15.567-3.128L97.386,46.272z" fill="#D2F1FF"/><polygon fill="#D2F1FF" points="101.036,39.401 101.028,39.416 101.028,39.416      "/></g><path d="M102.916,35.463c-0.07,0.078-0.142,0.155-0.214,0.232c-0.051,0.056-0.103,0.113-0.155,0.168      c-0.698,0.749-1.417,1.458-2.153,2.15l0.004,0.012l0.631,1.391C101.704,38.116,102.349,36.799,102.916,35.463" fill="#FCFCFC"/><path d="M63.555,52.635c0,0,0.812,4.428,3.247,5.43c1.56,0.637,2.842,0.213,3.631-0.242      c0.553-0.318,0.865-0.652,0.865-0.652S72.97,50.238,63.555,52.635" fill="#D2F1FF"/><path d="M72.965,48.551c0,0-0.924,2.303-0.745,3.714c0.196,1.544,0.996,1.389,0.996,1.389      S75.16,51.216,72.965,48.551" fill="#D2F1FF"/><path d="M61.373,60.314c1.028,2.288,2.288,2.04,3.013,1.622c0.36-0.208,0.589-0.46,0.589-0.46      s0.233-1.064-0.828-1.58C63.161,59.432,61.373,60.314,61.373,60.314" fill="#D2F1FF"/><path d="M70.251,59.307c0.912,2.605,2.239,2.299,2.939,1.896c0.29-0.169,0.473-0.354,0.473-0.354      s0.287-1.066-0.714-1.706C72.032,58.566,70.251,59.307,70.251,59.307" fill="#D2F1FF"/><path d="M68.18,60.188c-0.464,0.268-0.843,0.924-0.841,1.457c0,0.533,0.383,0.752,0.846,0.482      c0.473-0.271,0.844-0.925,0.843-1.458C69.025,60.136,68.651,59.914,68.18,60.188" fill="#D2F1FF"/><path d="M62.772,56.494c-0.175,0.101-0.32,0.35-0.318,0.551c0,0.201,0.146,0.276,0.32,0.175      c0.176-0.101,0.319-0.343,0.318-0.544C63.093,56.475,62.947,56.393,62.772,56.494" fill="#D2F1FF"/><path d="M69.472,47.879c-0.092,0.053-0.16,0.179-0.159,0.276c0,0.104,0.069,0.144,0.16,0.091      c0.083-0.049,0.159-0.171,0.159-0.275C69.632,47.873,69.555,47.83,69.472,47.879" fill="#FCFCFC"/><path d="M70.11,49.822c-0.32,0.186-0.578,0.641-0.577,1.007c0.001,0.369,0.261,0.516,0.58,0.331      c0.32-0.185,0.585-0.635,0.585-1.003C70.696,49.791,70.429,49.639,70.11,49.822" fill="#D2F1FF"/></g></g></g></g></svg>